<?xml version="1.0" encoding="utf-8"?>
<!-- Generator: Adobe Illustrator 26.0.3, SVG Export Plug-In . SVG Version: 6.00 Build 0)  -->
<svg version="1.1" id="Слой_2_00000177453888601895666450000000762019383465994390_"
	 xmlns="http://www.w3.org/2000/svg" xmlns:xlink="http://www.w3.org/1999/xlink" x="0px" y="0px" viewBox="0 0 1920 1080"
	 style="enable-background:new 0 0 1920 1080;" xml:space="preserve">
<style type="text/css">
	.st0{display:none;}
	.st1{display:inline;fill:#76BEF4;}
	.st2{display:inline;fill:#104D5B;}
	.st3{display:inline;fill:none;}
	.st4{display:inline;}
	.st5{fill:#FFFFFF;}
	.st6{fill:#75121C;}
	.st7{fill:#4C4C4C;}
	.st8{fill:#76BEF4;}
	.st9{fill:#0E8917;}
	.st10{fill:#7F7F7F;}
	.st11{fill:#6D6C6C;}
	.st12{fill:#666666;}
	.st13{fill:#545454;}
	.st14{fill:#4C280D;}
	.st15{fill:#60371B;}
	.st16{fill:none;stroke:#4C280D;stroke-miterlimit:10;}
	.st17{fill:#5E2B08;}
	.st18{fill:url(#SVGID_1_);}
	.st19{fill:#707070;}
	.st20{fill:url(#SVGID_00000116219881515002506180000017579340954215414693_);}
	.st21{display:inline;opacity:0.75;}
	.st22{display:inline;opacity:0.32;}
	.st23{fill:#300A18;}
	.st24{fill:#B8B5AA;}
	.st25{display:inline;fill:#FFFFFF;}
	.st26{display:none;fill:#5E3206;stroke:#000000;stroke-width:4.570971e-02;stroke-miterlimit:10;}
	.st27{display:inline;fill:#724110;stroke:#000000;stroke-width:4.570971e-02;stroke-miterlimit:10;}
	
		.st28{clip-path:url(#SVGID_00000121276077226697947030000012523194992503560363_);fill:#EAB634;stroke:#000000;stroke-width:1.9996;stroke-miterlimit:10;}
	.st29{clip-path:url(#SVGID_00000121276077226697947030000012523194992503560363_);fill:#0A78A3;}
	.st30{clip-path:url(#SVGID_00000121276077226697947030000012523194992503560363_);fill:#1E1570;}
	
		.st31{clip-path:url(#SVGID_00000121276077226697947030000012523194992503560363_);fill:#622972;stroke:#000000;stroke-width:1.9996;stroke-miterlimit:10;}
	
		.st32{clip-path:url(#SVGID_00000121276077226697947030000012523194992503560363_);fill:#D65F7D;stroke:#000000;stroke-width:1.9996;stroke-miterlimit:10;}
	
		.st33{clip-path:url(#SVGID_00000121276077226697947030000012523194992503560363_);fill:#FC9A25;stroke:#000000;stroke-width:1.9996;stroke-miterlimit:10;}
	
		.st34{clip-path:url(#SVGID_00000121276077226697947030000012523194992503560363_);fill:#FFCF1C;stroke:#000000;stroke-width:1.9996;stroke-miterlimit:10;}
	.st35{clip-path:url(#SVGID_00000121276077226697947030000012523194992503560363_);fill:#445958;}
	.st36{opacity:0.25;clip-path:url(#SVGID_00000121276077226697947030000012523194992503560363_);}
	.st37{opacity:0.75;clip-path:url(#SVGID_00000121276077226697947030000012523194992503560363_);}
	
		.st38{clip-path:url(#SVGID_00000121276077226697947030000012523194992503560363_);fill:#0D842F;stroke:#000000;stroke-width:1.9996;stroke-miterlimit:10;}
	.st39{clip-path:url(#SVGID_00000121276077226697947030000012523194992503560363_);}
	.st40{fill:#001F2F;stroke:#000000;stroke-width:1.9996;}
	.st41{fill:#BCB6B9;stroke:#000000;stroke-width:1.9996;}
	.st42{fill:#B2AEB4;stroke:#000000;stroke-width:1.9996;}
	.st43{fill:#9E1B2E;stroke:#000000;stroke-width:1.9996;}
	.st44{display:none;fill:#9E1B2E;}
	.st45{fill:#661812;stroke:#000000;stroke-width:1.9996;}
	.st46{fill:#A5A5A5;stroke:#000000;stroke-width:1.9996;}
	.st47{fill:#7C7C7C;stroke:#000000;stroke-width:1.9996;}
	.st48{fill:#0A0A0A;}
	.st49{fill:#3A3A3A;stroke:#000000;stroke-width:1.9996;}
	.st50{fill:url(#SVGID_00000072257031309199509780000010455236327455249574_);}
	.st51{fill:#7C7C7C;}
	.st52{fill:url(#SVGID_00000181078359522611497460000006093332139519418243_);stroke:#000000;stroke-width:1.9996;}
	.st53{fill:#9E0D37;}
	.st54{fill:#720721;}
	.st55{fill:#FCFCFC;}
	.st56{fill:#152147;}
	.st57{fill:#FFFFFF;stroke:#FFFFFF;stroke-width:0.4629;stroke-miterlimit:10;}
	.st58{fill:#F9F9F9;}
	.st59{font-family:'SawarabiGothic-Regular';}
	.st60{font-size:50.9104px;}
	.st61{opacity:0.5;}
	.st62{opacity:0.5;enable-background:new    ;}
	.st63{fill:#6E3F00;stroke:#F7F8F9;stroke-width:0.3801;stroke-linecap:round;stroke-linejoin:round;stroke-miterlimit:10;}
	.st64{fill:#966600;stroke:#F7F8F9;stroke-width:0.3801;stroke-linecap:round;stroke-linejoin:round;stroke-miterlimit:10;}
	.st65{fill:#8B7100;stroke:#F7F8F9;stroke-width:0.3801;stroke-linecap:round;stroke-linejoin:round;stroke-miterlimit:10;}
	.st66{fill:#C7B900;stroke:#F7F8F9;stroke-width:0.3801;stroke-linecap:round;stroke-linejoin:round;stroke-miterlimit:10;}
	.st67{fill:#D0BB00;stroke:#F7F8F9;stroke-width:0.3801;stroke-linecap:round;stroke-linejoin:round;stroke-miterlimit:10;}
	.st68{fill:#AD7B00;stroke:#F7F8F9;stroke-width:0.3801;stroke-linecap:round;stroke-linejoin:round;stroke-miterlimit:10;}
	.st69{fill:#624000;stroke:#F7F8F9;stroke-width:0.3801;stroke-linecap:round;stroke-linejoin:round;stroke-miterlimit:10;}
	.st70{fill:#AA7900;stroke:#F7F8F9;stroke-width:0.3801;stroke-linecap:round;stroke-linejoin:round;stroke-miterlimit:10;}
	.st71{fill:#733F00;stroke:#F7F8F9;stroke-width:0.3801;stroke-linecap:round;stroke-linejoin:round;stroke-miterlimit:10;}
	.st72{fill:#FFAD14;stroke:#F7F8F9;stroke-width:0.3801;stroke-linecap:round;stroke-linejoin:round;stroke-miterlimit:10;}
	.st73{fill:#896B0E;stroke:#F7F8F9;stroke-width:0.3801;stroke-linecap:round;stroke-linejoin:round;stroke-miterlimit:10;}
	.st74{fill:#CA8F00;stroke:#F7F8F9;stroke-width:0.3801;stroke-linecap:round;stroke-linejoin:round;stroke-miterlimit:10;}
</style>
<g id="dis3" class="st0">
	<polygon id="sky" class="st1" points="1920.7,672.2 1920.7,678.5 -0.2,678.5 0,0 1920.4,1.2 1920.4,655.4 	"/>
	<path id="sea" class="st2" d="M1920.7,670.2v6.3h-0.3v59.1l-134.7,5.5c0,0-53.7,2.3-114.6,4.7c-8.8,0.3-17.7,0.7-26.6,1
		c-4.9,0.2-9.8,0.4-14.7,0.5l-6.3,0.2c-19.8,0.7-39,1.4-56.3,1.9l-3.8,0.1c-31.7,0.9-55.8,1.4-62.4,0.9c-7-0.5-35.1-0.1-72,0.7
		c-15.1,0.3-31.7,0.8-48.9,1.2h-0.7c-33.8,0.9-70.1,1.9-102.3,2.9h-0.1c-31.2,0.9-58.6,1.7-76.5,2.2c-3.7,0.1-7.1,0.2-9.9,0.2
		c-5.8,0.1-9.7,0.2-11.3,0.2c-0.8,0-1.8,0.1-3,0.2c-0.1,0-0.1,0-0.2,0c-1.1,0.2-2.3,0.3-3.6,0.6c-0.3,0-0.5,0.1-0.8,0.2
		c-32.5,6.5-137.4,41-137.4,41c-57,28.7-222.5,54.3-222.5,54.3s-2.8,0.3-7.7,0.7c-2.5,0.2-5.7,0.5-9.3,0.9c-2.7,0.2-5.6,0.5-8.7,0.8
		c-12.4,1.2-28.1,2.6-44.5,4.2l0,0c-0.3,0-0.6,0-0.8,0.1l0,0c-32,2.9-66.4,6-83.2,7.2c-5.1,0.4-8.6,0.6-10,0.5
		c-11.2-0.2-286.5,5.1-307.4,13c-11.9,4.5-119.9,1.5-211-2c-2.2-0.1-4.3-0.2-6.4-0.2l0,0c-66.6-2.6-122.6-5.2-122.6-5.2L0.1,871v-1
		V674v-0.2v-0.7l0,0l243.4-0.2l525-0.5l256-0.1l219-0.1h65.1h43.9h61.9h4.6h9.6L1920.7,670.2L1920.7,670.2L1920.7,670.2z"/>
	<path id="sand" class="st3" d="M-0.2,1010.2c37.7-1.4,254.2-9.7,284.9-21.6c34.3-7.5,238.1-33,238.1-33l185.8-56.7l95.4-43.8
		l2.4-1.1l-4.7,0.3l0,0l0,0l-12.2,0.7l-37.4,2.1l-1,0.1l0,0l-98.8,5.6l-43,2.5l-220.7,7.5L261,879.5l-108.5-1.9L6.7,870.8l-6.8,0.3
		l0,0v137.1C-0.2,1008.2-0.2,1010.2-0.2,1010.2z"/>
	<g id="boat" class="st4">
		<path class="st5" d="M804.3,792.5c0,0.5,0,1,0,1.5c-0.2,5.2-0.7,10.1-1.4,14.7c-0.1,0.6-0.2,1.2-0.3,1.7
			c-0.8,4.8-1.8,9.2-2.8,13.1l-0.6,2c-1.9,6.4-3.9,11.4-5.6,14.7c-39.5,17.3-72.9,28.5-117.6,41.1c-11.4-4.9-20.4-13.9-27.3-23.4
			c-0.3-0.3-0.5-0.7-0.8-1.1c-2.8-4-5.2-8-7.3-11.8c-0.2-0.3-0.4-0.7-0.5-1c-2.1-4-3.8-7.7-5.2-11l0,0c-0.1-0.3-0.3-0.7-0.4-1
			c-2.5-6.1-3.7-10.1-3.7-10.1c52.6,2.1,135.8-14.3,135.8-14.3c26.7-8.7,36.9-30.9,36.9-30.9C804.3,782.3,804.5,787.5,804.3,792.5z"
			/>
		<path class="st6" d="M676.1,881.4c0,0-5.1,11.7,8.4,10.8s105.2-33.9,107.8-39.3c2.6-5.4,1.9-3.3,1.4-12.6
			C793.7,840.3,728.7,868.1,676.1,881.4z"/>
		<path class="st5" d="M802.1,777.1c0,0-48.2,16.5-60.5,31.6s49.9-9.3,49.9-9.3L802.1,777.1z"/>
		<path class="st6" d="M638.7,822c-5.2,0-8.6,0-9.1-0.7c-1-1.4-1.6-2-1.6-3.3s0-1.1,1.3-1.1c1.5,0,154.6,3.2,172-41
			c0.5-1.3,0.8-1.5,1.7-0.5c0.8,0.9,0.7,2.1,0.8,3.6C787.7,820.2,673.4,822,638.7,822z"/>
		<path class="st7" d="M804.3,792.5c0,0.5,0,1,0,1.5c-21.1,21.9-65.7,31.3-99.6,35.5c-27.4,3.3-52.4,3.8-63.8,3.8c-3,0-5.1,0-5.9,0
			l0,0c-0.1-0.3-0.3-0.7-0.4-1C637,832.2,765.1,834.9,804.3,792.5z"/>
		<path class="st7" d="M802.9,808.7c-0.1,0.6-0.2,1.2-0.3,1.7c-21.1,21.7-63.7,30-95.9,33.1c-17.1,1.7-33.1,2.1-45.2,2.1
			c-11,0-18.7-0.4-20.9-0.5c-0.2-0.3-0.4-0.7-0.5-1C642,844.2,763.7,851.2,802.9,808.7z"/>
		<path class="st7" d="M799.8,823.5l-0.6,2c-21.1,21.4-60.5,29.1-90.1,31.8c-12.6,1.2-24.6,1.5-34.6,1.5c-13.3,0-22.9-0.6-25.8-0.8
			c-0.3-0.3-0.5-0.7-0.8-1.1C650.8,857.2,760.8,865.8,799.8,823.5z"/>
	</g>
	<g id="green" class="st4">
		<g>
			<path class="st8" d="M-0.2,1010.2L0,1080h1492.4l51.8-0.3h267.9l47.7,0.3h60.3l0.4-244v-11.7v-20.8v-21.7V748v-5.6l-223.9,2.8
				l-25.3,0.9l-26.6,0.9l-14.7,0.5l-6.3,0.2l-3.7,0.1l-52.6,1.8l-3.8,0.1l-123.5,4.2c0,0-90.4,0.7-162.9,1.5h-0.2
				c-31.7,0.4-60,0.7-75.8,1.1c-4.3,0.1-7.7,0.2-9.9,0.3c-1.2,0-2.1,0.1-2.6,0.1c-2.4,0-6.7,0.5-12.4,1.4c-0.1,0-0.1,0-0.2,0
				c-1.2,0.2-2.4,0.4-3.6,0.6c-0.3,0-0.5,0.1-0.8,0.2c-35.6,6.3-109.8,24.8-125.2,32.4c-18.9,9.3-50.7,18.9-105,30.2
				c-47.1,19.9-54.1,11.9-139.6,32.7l0,0l0,0c-2.3,0.5-4.6,1.1-7,1.7c-0.5,0.1-0.9,0.2-1.4,0.3C542.9,984.5,77.7,1005.6-0.2,1008.2
				V1010.2z"/>
			<path class="st8" d="M-0.2,1010.2L0,1080c-0.1-0.1,960-0.1,960-0.1c78.1-0.1,516.3,0.3,585-0.4c116.3-0.2,259,0.1,375,0.4
				c-0.5-83.5,0.6-253.6,0.3-337.6c-16.3,0.6-194.4,2.3-205.8,2.7c-13.8-0.1-53.9,1.5-68.6,1.9c-66.8,1.9-162.2,6.2-228.6,7.2
				c-61,0.6-145.1,1.2-205.9,2.3c-11.8,0.3-23.8-0.1-35.4,2c-19.9,3.4-39.8,8-59.5,12.7c-22.1,5.5-44.4,10.9-65.8,18.6
				c-34.5,16.2-72.3,24-109.3,32c-11.7,5-23.7,9.3-36.1,12.2c-10.9,2.5-22.1,4.2-33.1,6c-26.5,4.3-53,10-78.8,16.4
				c-106.2,53.1-223.1,81.2-339.2,103.4c-83.3,15.3-167.3,26.5-251.6,34.7c-67.4,6.5-135.1,11.3-202.8,13.8
				C-0.2,1008.2-0.2,1010.2-0.2,1010.2L-0.2,1010.2z M-0.2,1010.2v-2c67.7-2.5,135.3-7.3,202.8-13.8c92.6-9,185.2-21.6,276.6-39.5
				c107.6-21.8,215.6-49.3,314.2-98.7l8.4-2.1c28.8-7.2,58.6-12.6,88.1-17.3c5-0.9,10.5-2,15.4-3.1c12.4-3,24.4-7.3,36.1-12.2
				c34.6-7.5,69.8-14.5,102.3-28.9c3.3-1.7,7.1-3.2,10.5-4.4c20.4-6.9,41.4-12.1,62.3-17.3c20.8-5,41.6-9.8,62.7-13.2
				c10.7-1.6,21.5-1.2,32.3-1.5c69.8-1.1,158.9-1.8,228.7-2.5c77.4-2.6,179.9-6.1,257.2-8.7c13.2-0.2,27.5-0.3,40-0.5
				c0.1,0.1,183.2-2.5,183.1-2.2c-0.5,84.1,0.2,253.8-0.5,337.8c-115.8-0.3-258.7-0.5-375-0.4c-65.9,0.5-509.3,0.3-585,0.3
				c0,0-960,0-960-0.1C0,1080-0.2,1010.2-0.2,1010.2L-0.2,1010.2z"/>
		</g>
		<g>
			<path class="st9" d="M-0.2,1010.2L0,1080h1492.4l51.8-0.3h267.9l47.7,0.3h60.3l0.4-244v-11.7v-20.8v-21.7V748v-5.6l-223.9,2.8
				l-25.3,0.9l-26.6,0.9l-14.7,0.5l-6.3,0.2l-3.7,0.1l-52.6,1.8l-3.8,0.1l-123.5,4.2c0,0-90.4,0.7-162.9,1.5h-0.2
				c-31.7,0.4-60,0.7-75.8,1.1c-4.3,0.1-7.7,0.2-9.9,0.3c-1.2,0-2.1,0.1-2.6,0.1c-2.4,0-6.7,0.5-12.4,1.4c-0.1,0-0.1,0-0.2,0
				c-1.2,0.2-2.4,0.4-3.6,0.6c-0.3,0-0.5,0.1-0.8,0.2c-35.6,6.3-109.8,24.8-125.2,32.4c-18.9,9.3-50.7,18.9-105,30.2
				c-47.1,19.9-54.1,11.9-139.6,32.7l0,0l0,0c-2.3,0.5-4.6,1.1-7,1.7c-0.5,0.1-0.9,0.2-1.4,0.3C542.9,984.5,77.7,1005.6-0.2,1008.2
				V1010.2z"/>
			<path class="st9" d="M-0.2,1010.2L0,1080c-0.1-0.1,960-0.1,960-0.1c78.1-0.1,516.3,0.3,585-0.4c116.3-0.2,259,0.1,375,0.4
				c-0.5-83.5,0.6-253.6,0.3-337.6c-16.3,0.6-194.4,2.3-205.8,2.7c-13.8-0.1-53.9,1.5-68.6,1.9c-66.8,1.9-162.2,6.2-228.6,7.2
				c-61,0.6-145.1,1.2-205.9,2.3c-11.8,0.3-23.8-0.1-35.4,2c-19.9,3.4-39.8,8-59.5,12.7c-22.1,5.5-44.4,10.9-65.8,18.6
				c-34.5,16.2-72.3,24-109.3,32c-11.7,5-23.7,9.3-36.1,12.2c-10.9,2.5-22.1,4.2-33.1,6c-26.5,4.3-53,10-78.8,16.4
				c-106.2,53.1-223.1,81.2-339.2,103.4c-83.3,15.3-167.3,26.5-251.6,34.7c-67.4,6.5-135.1,11.3-202.8,13.8
				C-0.2,1008.2-0.2,1010.2-0.2,1010.2L-0.2,1010.2z M-0.2,1010.2v-2c67.7-2.5,135.3-7.3,202.8-13.8c92.6-9,185.2-21.6,276.6-39.5
				c107.6-21.8,215.6-49.3,314.2-98.7l8.4-2.1c28.8-7.2,58.6-12.6,88.1-17.3c5-0.9,10.5-2,15.4-3.1c12.4-3,24.4-7.3,36.1-12.2
				c34.6-7.5,69.8-14.5,102.3-28.9c3.3-1.7,7.1-3.2,10.5-4.4c20.4-6.9,41.4-12.1,62.3-17.3c20.8-5,41.6-9.8,62.7-13.2
				c10.7-1.6,21.5-1.2,32.3-1.5c69.8-1.1,158.9-1.8,228.7-2.5c77.4-2.6,179.9-6.1,257.2-8.7c13.2-0.2,27.5-0.3,40-0.5
				c0.1,0.1,183.2-2.5,183.1-2.2c-0.5,84.1,0.2,253.8-0.5,337.8c-115.8-0.3-258.7-0.5-375-0.4c-65.9,0.5-509.3,0.3-585,0.3
				c0,0-960,0-960-0.1C0,1080-0.2,1010.2-0.2,1010.2L-0.2,1010.2z"/>
		</g>
	</g>
	<g id="asfalt" class="st4">
		<path class="st10" d="M1920.4,734.3V748c0,0-145.5,8.6-250,14c-9.2,0.5-18.1,0.9-26.6,1.3c-36.9,1.8-65.3,3-74.4,2.8
			c0,0-223.8,14-254.3,14.7c-14.2,0.3-43.3,1.2-70.6,2.2c-0.1,0-0.1,0-0.2,0c-3.7,0.1-7.4,0.3-11,0.4l-44.4,1.6c-0.5,0-1,0-1.4,0
			l-3.8,0.1c-0.5,0-0.7,0-0.7,0l0,0l0,0l13.1-20.6l4.4-7l0.7-1.1l0.2-0.2c0,0,13.7-0.3,36.2-0.9l3.3-0.1
			c43.8-1.1,117.5-2.9,188.2-4.6c95.2-2.3,185-4.5,189-4.5c1.5,0,11.3-0.3,26.6-0.9c7.6-0.3,16.6-0.6,26.6-1
			C1755.1,741,1909.5,734.8,1920.4,734.3z"/>
		<path class="st11" d="M1182.9,796.3l0.1-11.2l61.8-2.2C1244.7,782.9,1192,788,1182.9,796.3z"/>
		<polygon class="st12" points="1191.6,756.1 1201.3,756.2 1183,785.1 1173.2,785.2 		"/>
		<path class="st13" d="M1182.9,796.3l0.1-11.2l-9.7,0.1v12.6C1173.2,797.8,1181.9,796,1182.9,796.3z"/>
	</g>
	<g id="trees" class="st4">
		<path class="st14" d="M92.5,924.1l-2.1,12.5c-0.2,1.4,0.9,2.7,2.3,2.7l37.5-0.6c1.1,0,2-0.8,2.2-1.8l3-14.6
			c0.3-1.5-0.9-2.9-2.4-2.8l-38.4,2.7C93.6,922.3,92.7,923.1,92.5,924.1z"/>
		<path class="st14" d="M123.2,917.9c0,0,12.9-15.2,18.7-14.3s-3.7-3.3-3.7-3.3l-5.1,0.9l-0.2-4.4l4.9-4.9l-7.2-0.2
			c0,0-2.3,2.6-4.2,4.4s-3.7,4-3.7,4s1.9-11.2,5.1-12.4c3.3-1.2,0.2-4.9,0.2-4.9s4-5.6-3.3-4c-7.2,1.6-9.1,7.7-9.8,8.7
			s-5.4,4.7-6.3,7s-3.7,8.4-3.7,8.4l-2.6-8c0,0-7.5-1.6-4.2,5.1c3.3,6.8,2.8,10.3,2.8,10.3l0.5,6.8L123.2,917.9z"/>
		<path class="st15" d="M107.1,907.8c0,0-15.4,15.2,4,17.3s9.6-15.9,9.6-15.9S114.3,905.5,107.1,907.8z"/>
		<path class="st16" d="M117.5,911.6c0,0-7.8-2.7-8.8,0.8c-0.9,3.5-4.7,3.3-1.9,6.7c2.8,3.4,4.2,5.6,7.2,3.9s4.2-1.5,4.4-4.7
			s-0.3-3.4-2.3-4.2s-5.7-0.6-6.2,1.6c-0.5,2.2-0.7,4.3,0.8,4.8s5.4,1,5.4-0.6s0.2-2.8-0.7-3.2s-3.5-1.4-3.2,0.5s1.8,1.8,1.8,1.8"/>
		<path class="st14" d="M286.2,913.5l-12.2,0.9l-17-1.5c-2.3-0.2-4.5,1.1-5.3,3.3c-1.1,3-2.1,7.2,0.1,9.2c3.7,3.4,10.9,4,12.8,4
			s18.1,1.2,18.1,1.2L286.2,913.5z"/>
		<path class="st15" d="M284.4,914.4c0,0-7.8,0.9-5.9,8.7s4.4,9.3,7.2,7.5c2.8-1.9,7.5-4.4,7.5-8.4S287.5,909.5,284.4,914.4z"/>
		<path class="st16" d="M290.2,916.5c0,0-7.8-2.7-8.8,0.8s-4.7,3.3-1.9,6.7c2.8,3.4,4.2,5.6,7.2,3.9s4.2-1.5,4.4-4.7
			s-0.4-3.4-2.3-4.2s-5.7-0.6-6.2,1.6c-0.5,2.2-0.7,4.3,0.8,4.8s5.4,1,5.4-0.6s0.2-2.8-0.7-3.2s-3.5-1.4-3.2,0.5s1.8,1.8,1.8,1.8"/>
		<path class="st15" d="M259.1,903.8c0,0-7.5-0.7-5.1,5.6c2.4,6.2,1.6,8.5,6.7,6.9s6.3-1.6,3.5-5.9S259.1,903.8,259.1,903.8z"/>
		<path class="st16" d="M262.8,907.8c0,0-4.6-1.6-5.2,0.5c-0.5,2.1-2.8,1.9-1.1,4c1.7,2,2.5,3.3,4.3,2.3s2.5-0.9,2.6-2.8
			c0.1-1.9-0.2-2-1.4-2.5s-3.4-0.3-3.7,1s-0.4,2.6,0.5,2.8c0.9,0.3,3.2,0.6,3.2-0.3s0.1-1.7-0.4-1.9s-2.1-0.8-1.9,0.3s1,1,1,1"/>
		<path class="st17" d="M259,903.9c0,0,110.2-31.2,162.6-11c0,0,8.8,6.6-0.9,11.1c-11-1.4-27-9.2-44.8-4.8s-69.4,7.5-76.2,11
			s-38.1,5.7-38.1,5.7L259,903.9z"/>
	</g>
	<g id="stolb" class="st4">
		
			<linearGradient id="SVGID_1_" gradientUnits="userSpaceOnUse" x1="400.23" y1="939.7" x2="419.17" y2="939.7" gradientTransform="matrix(1 0 0 -1 0 1860)">
			<stop  offset="0" style="stop-color:#ADADAD"/>
			<stop  offset="1" style="stop-color:#595959"/>
		</linearGradient>
		<polygon class="st18" points="403.5,890 400.2,950.6 415.2,947.8 419.2,890 		"/>
		<ellipse class="st19" cx="411.3" cy="890" rx="7.8" ry="0.6"/>
		
			<linearGradient id="SVGID_00000038398501640724560490000005542392838898398603_" gradientUnits="userSpaceOnUse" x1="1640.05" y1="1066.4385" x2="1671.65" y2="1066.4385" gradientTransform="matrix(1 0 0 -1 0 1860)">
			<stop  offset="0" style="stop-color:#ADADAD"/>
			<stop  offset="1" style="stop-color:#595959"/>
		</linearGradient>
		<path style="fill:url(#SVGID_00000038398501640724560490000005542392838898398603_);" d="M1640.1,851.5c0,0,14.3,7.8,26.5-0.5
			c0.6-16.8,5.1-117.8,5.1-117.8l-26.5-0.9L1640.1,851.5z"/>
	</g>
</g>
<g id="dis2" class="st0">
	<g class="st21">
		
			<image style="overflow:visible;enable-background:new    ;" width="197" height="198" xlink:href="../GoogleDrive/_HOBBY_/WEB/mgdn.loc/F9125F6F.png"  transform="matrix(1 0 0 1 -30 122)">
		</image>
	</g>
	<g class="st22">
		
			<image style="overflow:visible;enable-background:new    ;" width="469" height="469" xlink:href="../GoogleDrive/_HOBBY_/WEB/mgdn.loc/F9125F6D.png"  transform="matrix(1 0 0 1 -166 -14)">
		</image>
	</g>
	<g id="cloud" class="st4">
		<g id="_x37_">
			
				<image style="overflow:visible;enable-background:new    ;" width="410" height="211" xlink:href="../GoogleDrive/_HOBBY_/WEB/mgdn.loc/F9125F73.png"  transform="matrix(1 0 0 1 2 13)">
			</image>
		</g>
		<g id="_x36_">
			
				<image style="overflow:visible;enable-background:new    ;" width="483" height="284" xlink:href="../GoogleDrive/_HOBBY_/WEB/mgdn.loc/F9125F75.png"  transform="matrix(0.9965 0 0 0.9965 472.2725 -20.2727)">
			</image>
		</g>
		<g id="_x35_">
			
				<image style="overflow:visible;enable-background:new    ;" width="482" height="283" xlink:href="../GoogleDrive/_HOBBY_/WEB/mgdn.loc/F9125F77.png"  transform="matrix(1 0 0 1 1297 170)">
			</image>
		</g>
		<g id="_x34_">
			
				<image style="overflow:visible;enable-background:new    ;" width="529" height="257" xlink:href="../GoogleDrive/_HOBBY_/WEB/mgdn.loc/F9125F74.png"  transform="matrix(1 0 0 1 704 163)">
			</image>
		</g>
		<g id="_x33_">
			
				<image style="overflow:visible;enable-background:new    ;" width="530" height="259" xlink:href="../GoogleDrive/_HOBBY_/WEB/mgdn.loc/F9125F7C.png"  transform="matrix(0.9961 0 0 0.9961 1386.744 -4.2727)">
			</image>
		</g>
		<g id="_x32_">
			
				<image style="overflow:visible;enable-background:new    ;" width="482" height="273" xlink:href="../GoogleDrive/_HOBBY_/WEB/mgdn.loc/F9125F7D.png"  transform="matrix(0.9963 0 0 0.9963 208.0322 100.0909)">
			</image>
		</g>
		<g id="_x31_">
			
				<image style="overflow:visible;enable-background:new    ;" width="482" height="272" xlink:href="../GoogleDrive/_HOBBY_/WEB/mgdn.loc/F9125F7F.png"  transform="matrix(1 0 0 1 987 -37)">
			</image>
		</g>
	</g>
	<g id="small_x5F_ship" class="st4">
		<path class="st23" d="M409.9,677.5H441c0.7,0,1.1,0.7,0.8,1.3l-2.7,5.2c-0.2,0.5-0.7,0.8-1.3,0.8h-24c-0.5,0-1-0.3-1.2-0.7
			l-3.4-5.5C409,678.2,409.3,677.5,409.9,677.5z"/>
		<path class="st5" d="M435.1,672.7l-3.3-1.6v6.4h3.3C435.1,677.5,435.1,672.5,435.1,672.7z"/>
		<path class="st5" d="M429.5,677.5c0,0,0-9.8,0-9.6l-3.3,1.3v8.4L429.5,677.5z"/>
	</g>
</g>
<g id="dis" class="st0">
	<g id="road" class="st4">
		<path class="st10" d="M1920.4,781.8V836c-34.4,18.3-135.5,88-60.6,244h-367.4c28.8-45.5,138.3-205.5,277.4-246.3
			C1912,783,1879.4,795,1920.4,781.8z"/>
		<path class="st24" d="M1920.4,803.5v20.8c-29.6,11.5-40.1,24.3-72.1,45.7c-41.3,27.6-63.9,75.9-58.2,125.2
			c3.7,32.9,13.3,63.1,22,84.8l-268-0.1C1665.9,877.5,1839.5,819.7,1920.4,803.5z"/>
	</g>
	<path id="beach_x5F_wave" class="st25" d="M-0.2,871.1c0,0,57.9,4.7,71.7,4.7s55.5,3.7,72.3,3.7s61.7,6.2,89.8,1.9
		c28.1,1.9,51.7,3.7,69.8-1.2c18.1-5,64.8-1.9,87.9-5s34.3,9.4,57.4,7.5s61.7-10,81.7-9.4c19.9,0.6,97.2-1.9,108.5-7.5
		s35.7,3.9,56-0.8s-28.8-6.5-70.6-7s-25.3,7.5-65.2,1.2c-39.9-6.2-61.7,12.5-92.6,2.2c0,0-46.8,5.9-86-5.3
		c-40.8-2.2-38.6,8.4-65.1,1.2s-110.6,22.4-146.2-1.6c-53.3-5-71.4,10.6-111.6-3.4c-46.2-3-57.4,3.3-57.4,3.3L-0.2,871.1z"/>
	<g id="wave4" class="st4">
		<path class="st5" d="M64.3,823.1c35.2,5.2,71.4,8.2,106.9,4.3c5.9-0.7,11.5-1.8,17.4-2.8c6.2-1.1,12.3-1.7,18.5-2
			c12.2-0.6,24.3-0.3,36.5,0.3c44.7,2.2,89.3,8.4,134,6.6c9.5-0.5,19.1,0.3,28.5-0.9c17.7-1.7,36,0.2,53,4.7
			c17.6,4.5,33.8,11.7,51.8,12c5.8,0.1,11.6-0.5,17.3-1.9c6-1.2,11.4-4.2,17.6-4.6c8.9-0.8,18.3-0.1,27.2,0.2
			c6.9,0.1,20.1,0.3,27,0.4c4.5,0.1,9,0.1,13.5,0.5c7.4,1,14.8,2,22.3,2.6c-7.5-0.3-15-1-22.4-1.8c-10.5-0.4-21,0.2-31.4,0.5
			c-13.1,0.8-27.1-1.1-40,1.7c-1.1,0.3-3,1-4,1.4c-2.8,1.1-5.8,2.1-8.7,2.9c-30.9,9.4-59-7.1-89.1-9.6c-8.7-0.8-17.4-0.5-25.9,0.8
			c-9,1.4-17.8,3.6-26.9,4.8c-6.1,0.8-12.3,0.7-18.4,0.7c-48.3-0.4-95.7-9.1-143.7-11.2c-13.2-0.6-26.5-0.3-39.4,1.8l-2.3,0.3
			l-2.3,0.2C141.8,838.5,102.4,832.4,64.3,823.1L64.3,823.1z"/>
	</g>
	<g id="wave4_00000007403980765405290190000010902971646254563770_" class="st4">
		<path class="st5" d="M96.9,758.5c35.2,5.2,71.4,8.2,106.9,4.3c5.9-0.7,11.5-1.8,17.4-2.8c6.2-1.1,12.3-1.7,18.5-2
			c12.2-0.6,24.3-0.3,36.5,0.3c44.7,2.2,89.3,8.4,134,6.6c9.5-0.5,19.1,0.3,28.5-0.9c17.7-1.7,36,0.2,53,4.7
			c17.6,4.5,33.8,11.7,51.8,12c5.8,0.1,11.6-0.5,17.3-1.9c6-1.2,11.4-4.2,17.6-4.6c8.9-0.8,18.3-0.1,27.2,0.2
			c6.9,0.1,20.1,0.3,27,0.4c4.5,0.1,9,0.1,13.5,0.5c7.4,1,14.8,2,22.3,2.6c-7.5-0.3-15-1-22.4-1.8c-10.5-0.4-21,0.2-31.4,0.5
			c-13.1,0.8-27.1-1.1-40,1.7c-1.1,0.3-3,1-4,1.4c-2.8,1.1-5.8,2.1-8.7,2.9c-30.9,9.4-59-7.1-89.1-9.6c-8.7-0.8-17.4-0.5-25.9,0.8
			c-9,1.4-17.8,3.6-26.9,4.8c-6.1,0.8-12.3,0.7-18.4,0.7c-48.3-0.4-95.7-9.1-143.7-11.2c-13.2-0.6-26.5-0.3-39.4,1.8l-2.3,0.3
			l-2.3,0.2C174.3,773.9,134.9,767.8,96.9,758.5L96.9,758.5z"/>
	</g>
	<g id="wave4_00000178924848801063233760000018020194649156677292_" class="st4">
		<path class="st5" d="M49.5,789.7c35.2,5.2,71.4,8.2,106.9,4.3c5.9-0.7,11.5-1.8,17.4-2.8c6.2-1.1,12.3-1.7,18.5-2
			c12.2-0.6,24.3-0.3,36.5,0.3c44.7,2.2,89.3,8.4,134,6.6c9.5-0.5,19.1,0.3,28.5-0.9c17.7-1.7,36,0.2,53,4.7
			c17.6,4.5,33.8,11.7,51.8,12c5.8,0.1,11.6-0.5,17.3-1.9c6-1.2,11.4-4.2,17.6-4.6c8.9-0.8,18.3-0.1,27.2,0.2
			c6.9,0.1,20.1,0.3,27,0.4c4.5,0.1,9,0.1,13.5,0.5c7.4,1,14.8,2,22.3,2.6c-7.5-0.3-15-1-22.4-1.8c-10.5-0.4-21,0.2-31.4,0.5
			c-13.1,0.8-27.1-1.1-40,1.7c-1.1,0.3-3,1-4,1.4c-2.8,1.1-5.8,2.1-8.7,2.9c-30.9,9.4-59-7.1-89.1-9.6c-8.7-0.8-17.4-0.5-25.9,0.8
			c-9,1.4-17.8,3.6-26.9,4.8c-6.1,0.8-12.3,0.7-18.4,0.7c-48.3-0.4-95.7-9.1-143.7-11.2c-13.2-0.6-26.5-0.3-39.4,1.8l-2.3,0.3
			l-2.3,0.2C127,805.1,87.5,799,49.5,789.7L49.5,789.7z"/>
	</g>
	<g id="wave4_00000002346410602884557560000013502314394746621590_" class="st4">
		<path class="st5" d="M93.8,723.6c35.2,5.2,71.4,8.2,106.9,4.3c5.9-0.7,11.5-1.8,17.4-2.8c6.2-1.1,12.3-1.7,18.5-2
			c12.2-0.6,24.3-0.3,36.5,0.3c44.7,2.2,89.3,8.4,134,6.6c9.5-0.5,19.1,0.3,28.5-0.9c17.7-1.7,36,0.2,53,4.7
			c17.6,4.5,33.8,11.7,51.8,12c5.8,0.1,11.6-0.5,17.3-1.9c6-1.2,11.4-4.2,17.6-4.6c8.9-0.8,18.3-0.1,27.2,0.2
			c6.9,0.1,20.1,0.3,27,0.4c4.5,0.1,9,0.1,13.5,0.5c7.4,1,14.8,2,22.3,2.6c-7.5-0.3-15-1-22.4-1.8c-10.5-0.4-21,0.2-31.4,0.5
			c-13.1,0.8-27.1-1.1-40,1.7c-1.1,0.3-3,1-4,1.4c-2.8,1.1-5.8,2.1-8.7,2.9c-30.9,9.4-59-7.1-89.1-9.6c-8.7-0.8-17.4-0.5-25.9,0.8
			c-9,1.4-17.8,3.6-26.9,4.8c-6.1,0.8-12.3,0.7-18.4,0.7c-48.3-0.4-95.7-9.1-143.7-11.2c-13.2-0.6-26.5-0.3-39.4,1.8l-2.3,0.3
			l-2.3,0.2C171.2,739,131.8,732.9,93.8,723.6L93.8,723.6z"/>
	</g>
</g>
<rect x="23.8" y="833.2" class="st26" width="373.4" height="153.4"/>
<g class="st0">
	<rect x="23.8" y="833.2" class="st27" width="373.4" height="11.6"/>
	<rect x="23.8" y="851" class="st27" width="373.4" height="11.6"/>
	<rect x="23.8" y="868.7" class="st27" width="373.4" height="11.6"/>
	<rect x="23.8" y="886.4" class="st27" width="373.4" height="11.6"/>
	<rect x="23.8" y="904.1" class="st27" width="373.4" height="11.6"/>
	<rect x="23.8" y="921.8" class="st27" width="373.4" height="11.6"/>
	<rect x="23.8" y="939.6" class="st27" width="373.4" height="11.6"/>
	<rect x="23.8" y="957.3" class="st27" width="373.4" height="11.6"/>
	<rect x="23.8" y="975" class="st27" width="373.4" height="11.6"/>
</g>
<g>
	<defs>
		<rect id="SVGID_00000119089494710606901930000008056990945938704269_" x="0" y="0" width="1920" height="1080"/>
	</defs>
	<clipPath id="SVGID_00000052802848827983585710000007752077109603673520_">
		<use xlink:href="#SVGID_00000119089494710606901930000008056990945938704269_"  style="overflow:visible;"/>
	</clipPath>
	
		<path style="clip-path:url(#SVGID_00000052802848827983585710000007752077109603673520_);fill:#EAB634;stroke:#000000;stroke-width:1.9996;stroke-miterlimit:10;" d="
		M-11.4,993.2c0,0,155.7,26.6,213.2,7s126.6-30.1,158.5-25.2c82.8,12.6,115,40.7,140.3,53.3c25.2,12.6,106.6,28,161.3,11.2
		c54.7-16.8,69.2-31.3,124.8-16.8c42.4,11,70.1,22.4,85.6,44.9c15.4,22.4-39.3,56.1-56.1,58.9c-16.8,2.8-869.6-15.4-869.6-15.4
		L-11.4,993.2z"/>
	
		<rect x="0" y="0.5" style="clip-path:url(#SVGID_00000052802848827983585710000007752077109603673520_);fill:#0A78A3;" width="1920" height="1080.5"/>
	
		<ellipse style="clip-path:url(#SVGID_00000052802848827983585710000007752077109603673520_);fill:#1E1570;" cx="1045" cy="1015.7" rx="1458.8" ry="1458.2"/>
	
		<ellipse style="clip-path:url(#SVGID_00000052802848827983585710000007752077109603673520_);fill:#622972;stroke:#000000;stroke-width:1.9996;stroke-miterlimit:10;" cx="1045" cy="1015.7" rx="900" ry="899.7"/>
	
		<ellipse style="clip-path:url(#SVGID_00000052802848827983585710000007752077109603673520_);fill:#D65F7D;stroke:#000000;stroke-width:1.9996;stroke-miterlimit:10;" cx="1045" cy="1015.7" rx="750" ry="749.7"/>
	
		<ellipse style="clip-path:url(#SVGID_00000052802848827983585710000007752077109603673520_);fill:#FC9A25;stroke:#000000;stroke-width:1.9996;stroke-miterlimit:10;" cx="1045" cy="1015.7" rx="600" ry="599.8"/>
	
		<ellipse style="clip-path:url(#SVGID_00000052802848827983585710000007752077109603673520_);fill:#FFCF1C;stroke:#000000;stroke-width:1.9996;stroke-miterlimit:10;" cx="1045" cy="1015.7" rx="450" ry="449.8"/>
	
		<rect x="0.4" y="863.6" style="clip-path:url(#SVGID_00000052802848827983585710000007752077109603673520_);fill:#445958;" width="1919.6" height="216.4"/>
	
		<path style="clip-path:url(#SVGID_00000052802848827983585710000007752077109603673520_);fill:#EAB634;stroke:#000000;stroke-width:1.9996;stroke-miterlimit:10;" d="
		M-11.4,993.2c0,0,155.7,26.6,213.2,7s126.6-30.1,158.5-25.2c82.8,12.6,115,40.7,140.3,53.3c25.2,12.6,106.6,28,161.3,11.2
		c54.7-16.8,69.2-31.3,124.8-16.8c42.4,11,70.1,22.4,85.6,44.9c15.4,22.4-39.3,56.1-56.1,58.9c-16.8,2.8-869.6-15.4-869.6-15.4
		L-11.4,993.2z"/>
	<g style="opacity:0.25;clip-path:url(#SVGID_00000052802848827983585710000007752077109603673520_);">
		
			<image style="overflow:visible;" width="5072" height="3101" xlink:href="32B0A7BF.png"  transform="matrix(0.24 0 0 0.24 459.44 606.32)">
		</image>
	</g>
	<g style="opacity:0.25;clip-path:url(#SVGID_00000052802848827983585710000007752077109603673520_);">
		
			<image style="overflow:visible;" width="4243" height="2819" xlink:href="32B0A7BD.png"  transform="matrix(0.24 0 0 0.24 552.9309 607.1148)">
		</image>
	</g>
	<g style="opacity:0.25;clip-path:url(#SVGID_00000052802848827983585710000007752077109603673520_);">
		
			<image style="overflow:visible;" width="3685" height="2629" xlink:href="32B0A7BB.png"  transform="matrix(0.24 0 0 0.24 597.0909 607.1148)">
		</image>
	</g>
	<g style="opacity:0.75;clip-path:url(#SVGID_00000052802848827983585710000007752077109603673520_);">
		
			<image style="overflow:visible;" width="3308" height="2501" xlink:href="32B0A7B5.png"  transform="matrix(0.24 0 0 0.24 648.6909 605.6748)">
		</image>
	</g>
	
		<path style="clip-path:url(#SVGID_00000052802848827983585710000007752077109603673520_);fill:#0D842F;stroke:#000000;stroke-width:1.9996;stroke-miterlimit:10;" d="
		M832.9,1081.6c0,0,123.4-204.7,450.2-193.5c326.8,11.2,643.8,12.6,643.8,12.6l-1.4,193.5L832.9,1081.6z"/>
	<g id="mountains" style="clip-path:url(#SVGID_00000052802848827983585710000007752077109603673520_);">
		<path class="st40" d="M1025.4,863.1l-1025,1.5v-0.8l0,0l-0.2-90.9c7.1-0.4,18.8-0.2,28.6,4.2c14.2,9.2,37.1,8.3,49.2,11.8
			s21.4,1.2,35.1,2.6c11.4,8.3,71,6.1,71,6.1s46.6,1.3,61.2,6.9c14.6,5.6,42.4,6.4,49,10.1c6.6,3.8,50.8,0,58,0.1
			c7.2,0.2,8.2-4.2,19.9-5.5c10.6,1,27.7,3.7,34,3.2c6.4-0.4,16.8-4.1,23.8-3.6s13.9,7.1,47.2,8.9c33.4,1.8,114.7-7.5,138.6-12.3
			c23.9-4.8,59.7-1.9,67.8,1.7c14.6,9.9,27.6,6.4,30.8,5.4c1.8,1.2,18-10,18-10l5.9,0.3l4.4,3.7l13.1,1.3c0,0,7.5,4.3,12.1,4.6
			c14.4-6.1,58.5,23.7,58.5,23.7s18.7-1.4,29.5,2.7s26.9,1.7,43.8,3.4c16.8,6,109.4,7.4,109.4,7.4c8.7,0.8,15,11.9,15.7,13.3
			C1025.4,863,1025.4,863.1,1025.4,863.1z"/>
		<path class="st40" d="M1919.7,867.4h-0.3l-194.6-1.4l-174.8-0.8l-129.4,0.7h-4c0,0-0.5-1.3-1.1-3.3c-1.2-4.1-2.9-10.9-1.3-13.3
			c0.3-0.4,1.7-1.2,3.9-2.2c15.8-6.8,74.1-24.7,88-24.4c15.9,0.4,12.1-4,19.6-4.6c7.5-0.6,79.7-29.4,99.8-31.6
			c20.1-2.3,70.9-4.2,85.4-3.3c13.9,3.5,30.7,3.8,45.9,3.8c13.8,2.8,26.6-2.6,26.6-2.6c15.8,4.8,39.1,3.9,39.1,3.9s3.9-3.1,17.3-1.7
			c19.2,3.4,39.6,5.5,52.6,0.6s27.3-4.3,27.3-4.3l0.2,61.4l-0.3,16.6L1919.7,867.4z"/>
	</g>
	<g id="mayak" style="clip-path:url(#SVGID_00000052802848827983585710000007752077109603673520_);">
		<polygon class="st41" points="1356.3,955.2 1173,956.2 1181.7,841.8 1341.3,841.8 		"/>
		<path class="st42" d="M1360,974.6h-190.6v-18.9c0-0.6,0.4-1,1-1H1359c0.6,0,1,0.4,1,1V974.6z"/>
		<path class="st43" d="M1360.8,997.5h-192.7v-21.4c0-1.1,0.9-2,2-2h188.7c1.1,0,2,0.9,2,2V997.5z"/>
		<path class="st44" d="M1170.3,1001.8l191.5-1.5l0.5-23.1c0-0.6-0.4-1-1-1l-190,1.8c-0.6,0-1,0.5-1,1V1001.8z"/>
		<path class="st45" d="M1285,995.6l-41.9-0.1c-0.6,0-1-0.4-1-1v-83.7c0-0.5,0.4-1,1-1l41.9,0.1c0.6,0,1,0.4,1,1v83.7
			C1286,995.2,1285.5,995.6,1285,995.6z"/>
		<rect x="1217.9" y="463.6" class="st46" width="83.5" height="344.4"/>
		<polygon class="st41" points="1183.9,807.5 1219,807.4 1217.9,463.6 1193.7,463.7 		"/>
		<polygon class="st47" points="1335.5,807.3 1300.3,807.2 1301.4,463.6 1325.7,464.2 		"/>
		
			<rect x="1280.1" y="949" transform="matrix(1.085668e-02 -0.9999 0.9999 1.085668e-02 316.3482 2220.6838)" class="st48" width="1" height="2.8"/>
		<path class="st46" d="M1349,842.3h-176.3c-0.6,0-1-0.5-1-1v-33.1c0-0.5,0.4-1,1-1h176.4c0.6,0,1,0.5,1,1v33.1
			C1350,841.9,1349.6,842.3,1349,842.3z"/>
		<rect x="1245.4" y="501.6" class="st49" width="29.9" height="45.8"/>
		<rect x="1245.4" y="577" class="st49" width="29.9" height="45.8"/>
		<rect x="1245.4" y="652.6" class="st49" width="29.9" height="45.8"/>
		<rect x="1245.4" y="728.3" class="st49" width="29.9" height="45.8"/>
		
			<linearGradient id="SVGID_00000164510987923695774030000003535590338170914464_" gradientUnits="userSpaceOnUse" x1="1258.5886" y1="1400.9822" x2="1258.5886" y2="1406.0903" gradientTransform="matrix(1 0 0 -1 0 1860)">
			<stop  offset="0" style="stop-color:#7C7C7C"/>
			<stop  offset="1" style="stop-color:#595959"/>
		</linearGradient>
		
			<rect x="1182" y="453.9" style="fill:url(#SVGID_00000164510987923695774030000003535590338170914464_);" width="153.2" height="5.1"/>
		<path class="st47" d="M1334.3,465h-151.2c-0.6,0-1-0.4-1-1v-9.1c0-0.6,0.4-1,1-1h151.2c0.6,0,1,0.4,1,1v9.1
			C1335.3,464.5,1334.8,465,1334.3,465z"/>
		<path class="st51" d="M1343.7,454.1h-169.1c-0.6,0-1-0.4-1-1v-10.6c0-0.6,0.4-1,1-1h169.1c0.6,0,1,0.4,1,1v10.6
			C1344.7,453.6,1344.2,454.1,1343.7,454.1z"/>
		
			<linearGradient id="SVGID_00000003827109640377417440000014483522687332337308_" gradientUnits="userSpaceOnUse" x1="1259.1387" y1="1405.926" x2="1259.1387" y2="1418.5713" gradientTransform="matrix(1 0 0 -1 0 1860)">
			<stop  offset="0" style="stop-color:#7C7C7C"/>
			<stop  offset="1" style="stop-color:#595959"/>
		</linearGradient>
		<path style="fill:url(#SVGID_00000003827109640377417440000014483522687332337308_);stroke:#000000;stroke-width:1.9996;" d="
			M1343.7,454.1h-169.1c-0.6,0-1-0.4-1-1v-11.6h171.1v11.6C1344.7,453.6,1344.2,454.1,1343.7,454.1z"/>
		<rect x="1253" y="376.3" class="st53" width="11.4" height="30.9"/>
		<rect x="1244.7" y="406.9" class="st54" width="28.1" height="25.2"/>
		<path class="st47" d="M1349.3,441.6h-182.2c-0.6,0-1-0.4-1-1v-9.1h184.2v9.1C1350.3,441.1,1349.8,441.6,1349.3,441.6z"/>
		<rect x="1190.9" y="397.8" width="1.6" height="33.7"/>
		<rect x="1200.3" y="397.8" width="1.6" height="33.7"/>
		<rect x="1210.4" y="397.8" width="1.6" height="33.7"/>
		<rect x="1219.4" y="399.5" width="1.6" height="32"/>
		<rect x="1228.9" y="399.5" width="1.6" height="32"/>
		<rect x="1238.9" y="402.5" width="1.6" height="29"/>
		<rect x="1247.2" y="402.5" width="1.6" height="29"/>
		<rect x="1256.7" y="402.5" width="1.6" height="29"/>
		<rect x="1266.7" y="402.5" width="1.6" height="29"/>
		<rect x="1275.3" y="402.5" width="1.6" height="29"/>
		<rect x="1284.7" y="399.9" width="1.6" height="31.6"/>
		<rect x="1294.8" y="399.9" width="1.6" height="31.6"/>
		<rect x="1303.9" y="397.8" width="1.6" height="33.7"/>
		<rect x="1313.4" y="397.8" width="1.6" height="33.7"/>
		<rect x="1323.4" y="397.8" width="1.6" height="33.7"/>
		<rect x="1191.1" y="418.6" width="133.7" height="1.4"/>
	</g>
	<g id="love" style="clip-path:url(#SVGID_00000052802848827983585710000007752077109603673520_);">
		<g id="d">
			<polygon class="st55" points="1812,878.8 1809.6,880.4 1807.5,877.6 1804.1,881.5 1800.7,877 1805.7,866.1 			"/>
			<path class="st56" d="M1862.9,923.8H1759c0,0,2.9-5.9,10.9-2.9c2.4-3.5,12.6-4.7,12.6-4.7l18.2-39.2l3.4,4.5l3.4-3.8l2.1,2.8
				l2.4-1.6l21.4,43.2c2.2-1.6,5.8-3.6,9.5-2.8c3.1-2.4,9.4-2.9,13.4,0.1C1860.3,922.3,1862.9,923.8,1862.9,923.8z"/>
			<path class="st57" d="M1813.6,896.6c0,0-2.4-2.8-5.7-2.8s-5.1,2-5.1,2l-0.9,0.4c0,0-3.2-0.9-5,1.1c-1.7,2-2.5,4.2-2.5,4.2
				s2.7-3.7,5.1-3.7c2.4,0,3.2,0.7,3.2,0.7s1.6,0.6,1.5-0.4c-0.1-1,0.2-0.3,0.3-0.7c0-0.1-0.2-1.1,0.4-1.5
				C1805.3,895.6,1808.1,894.1,1813.6,896.6z"/>
			<path class="st58" d="M1802.2,887.9c0,0-5.6-0.1-6.5,5c0,0-0.5,2.2-0.3,2.6c0.2-0.6,0.6-1.4,1.2-2.3c1-1.6,2.7-3.6,3.8-3.4
				c0.8,0.2,1.1,0.7,1.1,0.7c0,0.1,0,0.1,0.1,0.1c0.1,0.2,0.2,0.7,0.2,1.6c0,0,1.1-1.8,2.9-2.2c1.8-0.4,0.3-1.7,0.3-1.7
				s-0.1-2,8.1-2.3c-0.8-0.8-1.3-1.6-6.2-1.4C1806.7,884.6,1803.3,885.2,1802.2,887.9z"/>
		</g>
		<path class="st58" d="M1807.5,987.3"/>
		<text transform="matrix(1.0003 0 0 1 1490.9996 923.7383)" class="st55 st59 st60">Я        МАГА  АН</text>
		<g class="st61">
			
				<image style="overflow:visible;" width="2518" height="2318" xlink:href="32B0A7B7.png"  transform="matrix(0.24 0 0 0.24 1508.96 673.28)">
			</image>
		</g>
		<g class="st62">
			
				<image style="overflow:visible;" width="3890" height="2171" xlink:href="32B0A7AA.png"  transform="matrix(0.24 0 0 0.24 1234.16 669.2)">
			</image>
		</g>
		<g id="heart">
			<polygon class="st63" points="1609.6,885.9 1585.1,892.5 1560.9,885.5 1586.3,868.6 			"/>
			<polygon class="st64" points="1625.2,888.5 1609.3,886.3 1621.5,861.7 			"/>
			<polygon class="st65" points="1572,838.4 1568.9,848.4 1548.3,847.3 			"/>
			<polygon class="st66" points="1587.1,852.7 1587.1,857.5 1572.1,838.5 			"/>
			<polygon class="st67" points="1621.7,861.7 1609.6,885.9 1586.3,868.6 1603.4,850 			"/>
			<polygon class="st66" points="1604.2,840.8 1603.8,850.6 1586.9,858.1 1587.1,852.7 			"/>
			<polygon class="st68" points="1603.8,850.6 1586.3,868.6 1587.1,857.5 			"/>
			<polygon class="st69" points="1545.8,885.9 1544,888.8 1542.4,885.9 1539.6,880.7 1539.4,866.7 1545.8,885.9 			"/>
			<polygon class="st70" points="1625.7,890.7 1625.7,890.7 1618.5,901.2 1586.2,926 1585.1,892.5 1609.6,885.9 1625.3,887.7 
				1625.6,890.3 			"/>
			<polygon class="st65" points="1631.6,868.3 1623,862.9 1603.8,850.6 1604.2,840.8 1604.2,840.7 1625.9,851.3 			"/>
			<polygon class="st69" points="1632.1,869.6 1631.3,882.4 1625.5,890.9 1625.5,890.4 1625.1,887.8 1625.1,887.8 1621.5,862 
				1622.4,862.4 1631.6,868.3 1631.6,868.3 			"/>
			<polygon class="st64" points="1561.1,886.4 1546,886.6 1539.4,866.7 1551.9,858.4 			"/>
			<polygon class="st71" points="1586.3,925.9 1550.9,901.4 1544,888.8 1545.8,885.9 1560.9,885.5 1585.1,892.5 			"/>
			<polygon class="st72" points="1569,848.3 1552.1,858.4 1541.9,860.8 1548.3,847.3 			"/>
			<polygon class="st73" points="1551.9,858.4 1539.4,866.7 1541.9,860.8 			"/>
			<polygon class="st67" points="1586.3,868.6 1560.9,885.5 1551.9,858.4 1569,848.3 			"/>
			<polygon class="st74" points="1587.1,857.5 1586.3,868.6 1568.9,848.4 1572,838.4 			"/>
		</g>
		<g class="st61">
			
				<image style="overflow:visible;" width="4587" height="4319" xlink:href="32B0A7AB.png"  transform="matrix(0.24 0 0 0.24 1060.4 425.84)">
			</image>
		</g>
	</g>
	<g style="clip-path:url(#SVGID_00000052802848827983585710000007752077109603673520_);">
		<path class="st5" d="M45.5,995.1c0.3-1,0.5-2.1,0.5-3.2c0-5.5-4.5-10-10-10c-5.4,0-9.8,4.3-10,9.7c-0.6-0.1-1.2-0.2-1.9-0.2
			c-4.4,0-8,3.6-8,8s3.6,8,8,8c3.3,0,6.1-2,7.4-4.9c1.1,3.2,4.1,5.5,7.6,5.5c4.4,0,8-3.6,8-8C47.2,998.1,46.6,996.5,45.5,995.1z"/>
		<path class="st5" d="M352.9,972.7c0.3-1,0.5-2.1,0.5-3.2c0-5.5-4.5-10-10-10c-5.4,0-9.8,4.3-10,9.7c-0.6-0.1-1.2-0.2-1.9-0.2
			c-4.4,0-8,3.6-8,8s3.6,8,8,8c3.3,0,6.1-2,7.4-4.9c1.1,3.2,4.1,5.5,7.6,5.5c4.4,0,8-3.6,8-8C354.5,975.7,353.9,974,352.9,972.7z"/>
		<path class="st5" d="M149.9,1003.5c0.3-1,0.5-2.1,0.5-3.2c0-5.5-4.5-10-10-10c-5.4,0-9.8,4.3-10,9.7c-0.6-0.1-1.2-0.2-1.9-0.2
			c-4.4,0-8,3.6-8,8s3.6,8,8,8c3.3,0,6.1-2,7.4-4.9c1.1,3.2,4.1,5.5,7.6,5.5c4.4,0,8-3.6,8-8C151.6,1006.6,151,1004.9,149.9,1003.5z
			"/>
		<path class="st5" d="M232.5,991.2c0.3-1,0.5-2.1,0.5-3.2c0-5.5-4.5-10-10-10c-5.4,0-9.8,4.3-10,9.7c-0.6-0.1-1.2-0.2-1.9-0.2
			c-4.4,0-8,3.6-8,8s3.6,8,8,8c3.3,0,6.1-2,7.4-4.9c1.1,3.2,4.1,5.5,7.6,5.5c4.4,0,8-3.6,8-8C234.2,994.2,233.6,992.6,232.5,991.2z"
			/>
		<circle class="st5" cx="56.5" cy="1001.8" r="5"/>
		<path class="st5" d="M105.2,1005.2c0-1.1-0.9-2-2-2c-0.9,0-1.7,0.6-1.9,1.5c-0.5-1-1.5-1.8-2.7-1.8c-1.7,0-3,1.3-3,3
			c0,1.7,1.3,3,3,3c0.8,0,1.5-0.3,2.1-0.8c0.3,0.6,1,1.1,1.8,1.1c1.1,0,2-0.9,2-2c0-0.1,0-0.2,0-0.3
			C104.8,1006.4,105.2,1005.8,105.2,1005.2z"/>
		<path class="st5" d="M177.5,1006c0,1.1,0.9,2,2,2c0.9,0,1.7-0.6,1.9-1.5c0.5,1,1.5,1.8,2.7,1.8c1.7,0,3-1.3,3-3c0-1.7-1.3-3-3-3
			c-0.8,0-1.5,0.3-2.1,0.8c-0.3-0.6-1-1.1-1.8-1.1c-1.1,0-2,0.9-2,2c0,0.1,0,0.2,0,0.3C177.8,1004.8,177.5,1005.4,177.5,1006z"/>
		<path class="st5" d="M350.7,974.7c0,1.1,0.9,2,2,2c0.9,0,1.7-0.6,1.9-1.5c0.5,1,1.5,1.8,2.7,1.8c1.7,0,3-1.3,3-3c0-1.7-1.3-3-3-3
			c-0.8,0-1.5,0.3-2.1,0.8c-0.3-0.6-1-1.1-1.8-1.1c-1.1,0-2,0.9-2,2c0,0.1,0,0.2,0,0.3C351.1,973.4,350.7,974,350.7,974.7z"/>
		<path class="st5" d="M85,1003.9c-0.2,0-0.4,0-0.5,0.1c0.1-0.4,0.2-0.9,0.2-1.4c0-2.6-2.1-4.8-4.8-4.8c-2.3,0-4.2,1.6-4.7,3.8
			c-0.4-0.3-0.9-0.5-1.4-0.5c-1.3,0-2.4,1.1-2.4,2.4s1.1,2.4,2.4,2.4c0.8,0,1.5-0.4,1.9-1c0.8,1.5,2.4,2.5,4.2,2.5
			c1,0,1.8-0.3,2.6-0.8c0.1,1.3,1.2,2.3,2.5,2.3c1.4,0,2.5-1.1,2.5-2.5C87.5,1005,86.4,1003.9,85,1003.9z"/>
		<path class="st5" d="M147.3,1007c0.2,0,0.4,0,0.5-0.1c-0.1,0.4-0.2,0.9-0.2,1.4c0,2.6,2.1,4.8,4.8,4.8c2.3,0,4.2-1.6,4.7-3.8
			c0.4,0.3,0.9,0.5,1.4,0.5c1.3,0,2.4-1.1,2.4-2.4s-1.1-2.4-2.4-2.4c-0.8,0-1.5,0.4-1.9,1c-0.8-1.5-2.4-2.5-4.2-2.5
			c-1,0-1.8,0.3-2.6,0.8c-0.1-1.3-1.2-2.3-2.5-2.3c-1.4,0-2.5,1.1-2.5,2.5C144.8,1005.9,145.9,1007,147.3,1007z"/>
		<path class="st5" d="M228.9,988.4c0.2,0,0.4,0,0.5-0.1c-0.1,0.4-0.2,0.9-0.2,1.4c0,2.6,2.1,4.8,4.8,4.8c2.3,0,4.2-1.6,4.7-3.8
			c0.4,0.3,0.9,0.5,1.4,0.5c1.3,0,2.4-1.1,2.4-2.4s-1.1-2.4-2.4-2.4c-0.8,0-1.5,0.4-1.9,1c-0.8-1.5-2.4-2.5-4.2-2.5
			c-1,0-1.8,0.3-2.6,0.8c-0.1-1.3-1.2-2.3-2.5-2.3c-1.4,0-2.5,1.1-2.5,2.5C226.4,987.3,227.5,988.4,228.9,988.4z"/>
		<path class="st5" d="M423.4,987.2c-0.2,0-0.4,0-0.6,0.1c0,0,0,0,0,0c0-1.8-0.6-3.5-1.7-4.9c0.3-1,0.5-2.1,0.5-3.2
			c0-5.5-4.5-10-10-10c-5.4,0-9.8,4.3-10,9.7c-0.6-0.1-1.2-0.2-1.9-0.2c-4.4,0-8,3.6-8,8s3.6,8,8,8c3.3,0,6.1-2,7.4-4.9
			c1.1,3.2,4.1,5.5,7.6,5.5c1.4,0,2.8-0.4,4-1.1c0.8,1.8,2.5,3,4.6,3c2.8,0,5-2.2,5-5S426.1,987.2,423.4,987.2z"/>
		<path class="st5" d="M477.3,1011.4c0-1.1-0.9-2-2-2c-0.9,0-1.7,0.6-1.9,1.5c-0.5-1-1.5-1.8-2.7-1.8c-1.7,0-3,1.3-3,3
			c0,1.7,1.3,3,3,3c0.8,0,1.5-0.3,2.1-0.8c0.3,0.6,1,1.1,1.8,1.1c1.1,0,2-0.9,2-2c0-0.1,0-0.2,0-0.3
			C477,1012.7,477.3,1012.1,477.3,1011.4z"/>
		<path class="st5" d="M594.9,1046.2c0-1.1-0.9-2-2-2c-0.9,0-1.7,0.6-1.9,1.5c-0.5-1-1.5-1.8-2.7-1.8c-1.7,0-3,1.3-3,3
			c0,1.7,1.3,3,3,3c0.8,0,1.5-0.3,2.1-0.8c0.3,0.6,1,1.1,1.8,1.1c1.1,0,2-0.9,2-2c0-0.1,0-0.2,0-0.3
			C594.6,1047.5,594.9,1046.9,594.9,1046.2z"/>
		<path class="st5" d="M681.2,1032.3c-0.3-1.1-1.4-1.7-2.5-1.4c-0.9,0.2-1.4,1-1.4,1.9c-0.7-0.9-1.9-1.3-3.1-0.9
			c-1.6,0.5-2.5,2.1-2.1,3.7s2.1,2.5,3.7,2.1c0.8-0.2,1.4-0.7,1.8-1.4c0.5,0.5,1.2,0.8,2,0.6c1.1-0.3,1.7-1.4,1.4-2.5
			c0-0.1-0.1-0.2-0.1-0.3C681.3,1033.6,681.4,1033,681.2,1032.3z"/>
		<path class="st5" d="M571.8,1044.7c0-1-0.7-1.8-1.7-2c0.4-0.4,0.7-0.9,0.7-1.5c0-1.1-0.9-2-2-2c-0.9,0-1.7,0.6-1.9,1.5
			c-0.5-1-1.5-1.8-2.7-1.8c-1.4,0-2.7,1-2.9,2.4c-0.7,0.1-1.3,0.4-1.7,0.8c-0.3-0.6-1-1.1-1.8-1.1c-1.1,0-2,0.9-2,2
			c0,0.1,0,0.2,0,0.3c-0.5,0.4-0.9,1-0.9,1.6c0,1.1,0.9,2,2,2c0.9,0,1.7-0.6,1.9-1.5c0.5,1,1.5,1.8,2.7,1.8c0.4,0,0.7-0.1,1-0.2
			c0.5,0.8,1.5,1.3,2.5,1.3c0.8,0,1.5-0.3,2.1-0.8c0.3,0.6,1,1.1,1.8,1.1c1.1,0,2-0.9,2-2c0-0.1,0-0.2,0-0.3
			C571.4,1046,571.8,1045.4,571.8,1044.7z"/>
		<path class="st5" d="M458,1003.6c-0.2-0.1-0.3-0.1-0.5-0.1c0.3-0.4,0.5-0.8,0.6-1.2c0.8-2.5-0.6-5.2-3.1-6
			c-2.2-0.7-4.5,0.3-5.6,2.2c-0.3-0.4-0.7-0.7-1.2-0.9c-1.3-0.4-2.6,0.3-3,1.6c-0.4,1.3,0.3,2.6,1.6,3c0.8,0.2,1.5,0.1,2.1-0.4
			c0.3,1.7,1.5,3.1,3.2,3.6c0.9,0.3,1.9,0.3,2.7,0c-0.3,1.3,0.4,2.6,1.7,3c1.3,0.4,2.7-0.3,3.1-1.6
			C460,1005.5,459.3,1004,458,1003.6z"/>
		<path class="st5" d="M490.5,1030.8c0.8,0.2,1.6,0,2.1-0.5c0.4,1.6,1.7,3,3.4,3.4c0.7,0.2,1.4,0.2,2.1,0c0.1,0.2,0.1,0.4,0.2,0.6
			c-0.6,0.9-1,1.9-1.3,3c-1.3,5.4,1.9,10.8,7.3,12.1c5.3,1.3,10.6-1.8,12-7c0.5,0.3,1.1,0.5,1.7,0.7c4.3,1.1,8.6-1.5,9.7-5.8
			c1.1-4.3-1.5-8.6-5.8-9.7c-3.2-0.8-6.5,0.5-8.3,3c-0.3-3.4-2.6-6.3-6-7.2c-2.8-0.7-5.5,0.2-7.5,2c-0.5-0.4-1.1-0.7-1.8-0.9
			c-2.2-0.6-4.5,0.6-5.4,2.5c-0.3-0.4-0.7-0.7-1.3-0.8c-1.3-0.3-2.6,0.5-2.9,1.7C488.5,1029.1,489.2,1030.4,490.5,1030.8z"/>
		<path class="st5" d="M649.3,1037.3c-0.8,0-1.5,0.4-1.9,1c-0.8-1.5-2.4-2.5-4.2-2.5c-0.4,0-0.9,0.1-1.3,0.2c-1.2-4.2-5-7.2-9.6-7.2
			c-5.4,0-9.8,4.3-10,9.7c-0.6-0.1-1.2-0.2-1.9-0.2c-4.4,0-8,3.6-8,8c0,4.4,3.6,8,8,8c3.3,0,6.1-2,7.4-4.9c1.1,3.2,4.1,5.5,7.6,5.5
			c4.4,0,8-3.6,8-8c0-0.5-0.1-1.1-0.2-1.6c2.2-0.1,4.1-1.6,4.6-3.8c0.4,0.3,0.9,0.5,1.4,0.5c1.3,0,2.4-1.1,2.4-2.4
			C651.7,1038.3,650.6,1037.3,649.3,1037.3z"/>
		<path class="st5" d="M712.5,1024.2c-0.2-1-1.1-1.6-2-1.6c0.4-0.4,0.6-1,0.4-1.7c-0.2-1.1-1.3-1.8-2.3-1.6
			c-0.9,0.2-1.5,0.9-1.6,1.8c-0.7-0.9-1.8-1.4-3-1.2c-1.4,0.3-2.4,1.5-2.4,2.9c-0.6,0.2-1.2,0.6-1.5,1.1c-0.5-0.6-1.2-0.9-1.9-0.7
			c-1.1,0.2-1.8,1.3-1.6,2.3c0,0.1,0.1,0.2,0.1,0.3c-0.4,0.5-0.6,1.1-0.5,1.8c0.2,1.1,1.3,1.8,2.3,1.6c0.9-0.2,1.5-0.9,1.6-1.8
			c0.7,0.9,1.8,1.4,3,1.2c0.4-0.1,0.7-0.2,1-0.4c0.7,0.7,1.7,1,2.7,0.8c0.8-0.2,1.4-0.6,1.9-1.2c0.5,0.6,1.2,0.9,1.9,0.7
			c1.1-0.2,1.8-1.3,1.6-2.3c0-0.1-0.1-0.2-0.1-0.3C712.4,1025.5,712.6,1024.8,712.5,1024.2z"/>
		<path class="st5" d="M842.4,1042.7c0.3-0.9-0.1-2-1-2.4c0.5-0.2,1-0.6,1.2-1.2c0.4-1-0.2-2.2-1.2-2.5c-0.9-0.3-1.8,0-2.3,0.8
			c-0.1-1.1-0.9-2.1-2-2.5c-1.4-0.5-2.8,0.1-3.5,1.3c-0.7-0.1-1.3-0.1-1.9,0.2c-0.1-0.7-0.6-1.3-1.3-1.6c-1-0.4-2.2,0.2-2.5,1.2
			c0,0.1-0.1,0.2-0.1,0.3c-0.6,0.2-1.1,0.6-1.3,1.3c-0.4,1,0.2,2.2,1.2,2.5c0.9,0.3,1.8,0,2.3-0.8c0.1,1.1,0.9,2.1,2,2.5
			c0.3,0.1,0.7,0.2,1,0.1c0.2,0.9,0.9,1.7,1.9,2.1c0.8,0.3,1.5,0.2,2.2-0.1c0.1,0.7,0.6,1.3,1.3,1.6c1,0.4,2.2-0.2,2.5-1.2
			c0-0.1,0.1-0.2,0.1-0.3C841.7,1043.8,842.2,1043.4,842.4,1042.7z"/>
		<path class="st5" d="M784.2,1021c-0.7-0.4-1.5-0.3-2.2,0c0-1.7-0.9-3.4-2.5-4.3c-0.4-0.2-0.8-0.3-1.2-0.4c1-4.4-1-9-5-11.2
			c-4.8-2.6-10.9-0.7-13.7,4.2c-0.5-0.4-1-0.8-1.5-1.1c-3.9-2.1-8.9-0.5-11.1,3.6s-0.7,9.1,3.2,11.2c3,1.6,6.5,1.1,9-1
			c-0.6,3.4,0.9,7,4.1,8.7c3.9,2.1,8.9,0.5,11.1-3.6c0.3-0.5,0.5-1,0.6-1.5c2,1,4.5,0.4,5.9-1.3c0.2,0.5,0.6,0.9,1,1.1
			c1.2,0.6,2.7,0.1,3.3-1.1C785.8,1023.1,785.4,1021.7,784.2,1021z"/>
	</g>
</g>
</svg>
